# xmcd CD database file
# Copyright (C) 1993-1996 Ti Kan
#
# Track frame offsets:
# 182
# 13375
# 27892
# 42977
# 55717
# 68915
# 81205
# 97340
# 109485
# 123145
# 137677
# 151572
# 168670
# 181107
# 195972
# 208695
#
# Disc length: 2966 seconds
#
# Revision: 2
# Processed by: cddbd v1.4b41PL1 Copyright (c) Steve Scherf et al.
# Submitted via: inCDius 1.1b2
#
DISCID=d60b9410
DTITLE=Various Artist - The Blues 1923 To 1933
DYEAR=1900
DGENRE=
TTITLE0=Ida Cox with Jesse Crump - Give Me A Break Blues
TTITLE1=Cleo Gibson with her Hot Three - Nothin' But Blues
TTITLE2=Rosa Henderson with Edgar Dowell - Barrel House Blues
TTITLE3=Frances Hereford with the Levee Serenaders - Midnight Mama
TTITLE4=Memphis Jug Band - Kansas City Blues
TTITLE5=Ma Rainey with her Tub Jug Washboard Band - Prove It On Me Blues
TTITLE6=Issie Ringgold - Be On Your Merry Way
TTITLE7=Jimmie Rodgers with Louis Armstrong and Lil Armstrong - Blue Yodel No. 
TTITLE7=9
TTITLE8=Bessie Smith - Nobody Knows You When You're Down And Out
TTITLE9=Mamie Smith - Jenny's Ball
TTITLE10=Victoria Spivey - Moaning The Blues
TTITLE11=Eva Taylor with Williams' Jug Band - Organ Grinder
TTITLE12=Ethel Waters with Clarence Williams - Get Up Off Your Knees
TTITLE13=Margeret Webster with Clarence Williams' Washboard Band - I've Got Wha
TTITLE13=t It Takes
TTITLE14=Margeret Whitmire with Arnold Wiley - That Thing's Done Been Put On Me
TTITLE15=Lena Wilson with the Nubian Five - He Used To Be Your Man
EXTD=
EXTT0=
EXTT1=
EXTT2=
EXTT3=
EXTT4=
EXTT5=
EXTT6=
EXTT7=
EXTT8=
EXTT9=
EXTT10=
EXTT11=
EXTT12=
EXTT13=
EXTT14=
EXTT15=
PLAYORDER=
